<?xml version="1.0" encoding="UTF-8" standalone="no"?>
<!DOCTYPE svg PUBLIC "-//W3C//DTD SVG 1.1//EN"
 "http://www.w3.org/Graphics/SVG/1.1/DTD/svg11.dtd">
<!-- Generated by graphviz version 2.36.0 (20140111.2315)
 -->
<!-- Title: G Pages: 1 -->
<svg width="325pt" height="106pt"
 viewBox="0.00 0.00 325.20 106.20" xmlns="http://www.w3.org/2000/svg" xmlns:xlink="http://www.w3.org/1999/xlink">
<g id="graph0" class="graph" transform="scale(1 1) rotate(0) translate(21.6 84.6)">
<title>G</title>
<polygon fill="#111111" stroke="none" points="-21.6,21.6 -21.6,-84.6 303.6,-84.6 303.6,21.6 -21.6,21.6"/>
<!-- cjs.js -->
<g id="node1" class="node"><title>cjs.js</title>
<path fill="none" stroke="#c6c5fe" d="M46.3333,-42.5C46.3333,-42.5 7.66667,-42.5 7.66667,-42.5 3.83333,-42.5 0,-38.6667 0,-34.8333 0,-34.8333 0,-27.1667 0,-27.1667 0,-23.3333 3.83333,-19.5 7.66667,-19.5 7.66667,-19.5 46.3333,-19.5 46.3333,-19.5 50.1667,-19.5 54,-23.3333 54,-27.1667 54,-27.1667 54,-34.8333 54,-34.8333 54,-38.6667 50.1667,-42.5 46.3333,-42.5"/>
<text text-anchor="middle" x="27" y="-27.3" font-family="Arial" font-size="14.00" fill="#c6c5fe">cjs.js</text>
</g>
<!-- index.js -->
<g id="node2" class="node"><title>index.js</title>
<path fill="none" stroke="#c6c5fe" d="M146.333,-42.5C146.333,-42.5 97.6667,-42.5 97.6667,-42.5 93.8333,-42.5 90,-38.6667 90,-34.8333 90,-34.8333 90,-27.1667 90,-27.1667 90,-23.3333 93.8333,-19.5 97.6667,-19.5 97.6667,-19.5 146.333,-19.5 146.333,-19.5 150.167,-19.5 154,-23.3333 154,-27.1667 154,-27.1667 154,-34.8333 154,-34.8333 154,-38.6667 150.167,-42.5 146.333,-42.5"/>
<text text-anchor="middle" x="122" y="-27.3" font-family="Arial" font-size="14.00" fill="#c6c5fe">index.js</text>
</g>
<!-- cjs.js&#45;&gt;index.js -->
<g id="edge1" class="edge"><title>cjs.js&#45;&gt;index.js</title>
<path fill="none" stroke="#757575" d="M54.4013,-31C62.266,-31 71.0805,-31 79.658,-31"/>
<polygon fill="#757575" stroke="#757575" points="79.9233,-34.5001 89.9233,-31 79.9232,-27.5001 79.9233,-34.5001"/>
</g>
<!-- minify.js -->
<g id="node3" class="node"><title>minify.js</title>
<path fill="none" stroke="#cfffac" d="M261.833,-63.5C261.833,-63.5 210.167,-63.5 210.167,-63.5 206.333,-63.5 202.5,-59.6667 202.5,-55.8333 202.5,-55.8333 202.5,-48.1667 202.5,-48.1667 202.5,-44.3333 206.333,-40.5 210.167,-40.5 210.167,-40.5 261.833,-40.5 261.833,-40.5 265.667,-40.5 269.5,-44.3333 269.5,-48.1667 269.5,-48.1667 269.5,-55.8333 269.5,-55.8333 269.5,-59.6667 265.667,-63.5 261.833,-63.5"/>
<text text-anchor="middle" x="236" y="-48.3" font-family="Arial" font-size="14.00" fill="#cfffac">minify.js</text>
</g>
<!-- index.js&#45;&gt;minify.js -->
<g id="edge2" class="edge"><title>index.js&#45;&gt;minify.js</title>
<path fill="none" stroke="#757575" d="M154.198,-36.8497C166.047,-39.0714 179.753,-41.6411 192.472,-44.026"/>
<polygon fill="#757575" stroke="#757575" points="191.934,-47.486 202.407,-45.8889 193.224,-40.6059 191.934,-47.486"/>
</g>
<!-- options.json -->
<g id="node4" class="node"><title>options.json</title>
<path fill="none" stroke="#cfffac" d="M273.833,-22.5C273.833,-22.5 198.167,-22.5 198.167,-22.5 194.333,-22.5 190.5,-18.6667 190.5,-14.8333 190.5,-14.8333 190.5,-7.16667 190.5,-7.16667 190.5,-3.33333 194.333,0.5 198.167,0.5 198.167,0.5 273.833,0.5 273.833,0.5 277.667,0.5 281.5,-3.33333 281.5,-7.16667 281.5,-7.16667 281.5,-14.8333 281.5,-14.8333 281.5,-18.6667 277.667,-22.5 273.833,-22.5"/>
<text text-anchor="middle" x="236" y="-7.3" font-family="Arial" font-size="14.00" fill="#cfffac">options.json</text>
</g>
<!-- index.js&#45;&gt;options.json -->
<g id="edge3" class="edge"><title>index.js&#45;&gt;options.json</title>
<path fill="none" stroke="#757575" d="M154.198,-25.4289C162.287,-23.9845 171.241,-22.3855 180.156,-20.7936"/>
<polygon fill="#757575" stroke="#757575" points="180.927,-24.2113 190.156,-19.0078 179.697,-17.3203 180.927,-24.2113"/>
</g>
</g>
</svg>
